# xmcd
#
# Track frame offsets:
# 150
# 16644
# 20706
# 45538
# 67000
# 84385
# 97924
# 113149
# 133438
# 150563
# 170147
# 190344
# 198694
# 215513
# 230295
# 254872
# 269042
# 286061
# 303686
# 323015
#
# Disc length: 4404 seconds
#
#
# Revision: 3
# Processed by: cddbd v1.5.1PL2 Copyright (c) Steve Scherf et al.
# Submitted via: FreeRIP 2.945 
#
DISCID=2b113214
DTITLE=Project Pat - Layin Da Smack Down
DYEAR=2001
DGENRE=Rap
TTITLE0=Still Ridin' Clean
TTITLE1=The Porch 3
TTITLE2=Fight
TTITLE3=Weak Niggaz
TTITLE4=Make Dat Azz Clap (Back Clap) Feat. Juvenile
TTITLE5=Choose U
TTITLE6=Smokin' Out
TTITLE7=Show Dem Golds
TTITLE8=This Pimp
TTITLE9=On Nigga
TTITLE10=That Drank
TTITLE11=MC Flyjo
TTITLE12=Posse Song
TTITLE13=90 Days
TTITLE14=Shut Ya Mouth, Bitch
TTITLE15=Take Da Charge
TTITLE16=Smoke and Get High
TTITLE17=County Jail
TTITLE18=I'm Mo
TTITLE19=Outro
EXTD=
EXTT0=
EXTT1=
EXTT2=
EXTT3=
EXTT4=
EXTT5=
EXTT6=
EXTT7=
EXTT8=
EXTT9=
EXTT10=
EXTT11=
EXTT12=
EXTT13=
EXTT14=
EXTT15=
EXTT16=
EXTT17=
EXTT18=
EXTT19=
PLAYORDER=
